<svg width="9" height="31" viewBox="0 0 9 31" fill="none" xmlns="http://www.w3.org/2000/svg">
<path fill-rule="evenodd" clip-rule="evenodd" d="M4.44404 8.49995C6.77184 8.49995 8.67641 6.69519 8.67641 4.46181C8.67641 2.25098 6.81887 0.423671 4.49106 0.423671C2.18676 0.401112 0.282195 2.20586 0.258682 4.43925C0.235168 6.67263 2.11623 8.49995 4.44404 8.49995ZM2.32785 4.4167C2.35136 3.28872 3.3154 2.4089 4.49106 2.4089C5.66672 2.4089 6.60725 3.33384 6.60725 4.46181C6.60725 5.56722 5.6432 6.49216 4.46754 6.49216C3.26837 6.49216 2.30433 5.54467 2.32785 4.4167ZM8.51178 9.78584H0.0705439C0.0653907 9.80561 0.0613666 9.82322 0.0577293 9.83914C0.0447702 9.89585 0.0367199 9.93108 0 9.96631V18.0426C0 18.2682 0.11757 18.3133 0.305676 18.3584C0.418757 18.3845 0.532708 18.4105 0.647362 18.4367C1.12871 18.5467 1.62245 18.6595 2.11619 18.7871C3.0332 19.0352 3.95022 19.351 4.84372 19.915C4.67913 20.0504 4.53805 20.1632 4.39697 20.276C3.47996 21.0204 2.42186 21.4039 1.19917 21.4039H0.0705439V30.2473C0.217597 30.2398 0.359555 30.2373 0.498095 30.2348C0.780441 30.2298 1.04859 30.225 1.31674 30.1796C4.70264 29.6607 7.05397 27.8108 8.44125 24.8555C8.86448 23.9532 8.98204 22.9831 8.81745 22.0131C8.53529 20.3437 7.50072 19.1706 6.06641 18.2682C4.96129 17.5688 3.7386 17.1177 2.46889 16.8018C2.21024 16.7341 2.09268 16.6439 2.09268 16.3506V12.0869C2.09268 12.0443 2.09792 11.9967 2.10345 11.9464C2.10964 11.8901 2.11619 11.8306 2.11619 11.7711H6.46613V12.1771C6.46613 12.5966 6.46872 13.0185 6.47133 13.4421C6.47656 14.2944 6.48184 15.1533 6.46613 16.0122C6.46613 16.3281 6.53667 16.5086 6.84234 16.689C7.17365 16.8797 7.49329 17.1153 7.80947 17.3482C7.94209 17.4459 8.0741 17.5432 8.20611 17.6365C8.26077 17.6627 8.30748 17.6966 8.36471 17.738C8.40597 17.7679 8.45269 17.8018 8.51178 17.8396V9.78584ZM6.08998 21.5167C6.1605 21.449 6.23103 21.3814 6.34857 21.2912C6.84234 22.0356 6.9364 22.8026 6.70126 23.6373C6.39559 24.8104 5.66669 25.7354 4.74967 26.5475C4.02076 27.1792 3.1978 27.698 2.18673 28.0139C2.18673 27.9431 2.18031 27.8785 2.17417 27.8169C2.16857 27.7606 2.16322 27.7067 2.16322 27.6529V23.705C2.1397 23.4569 2.18673 23.3441 2.4924 23.2989C3.87968 23.0733 5.07886 22.4642 6.08993 21.5167L6.08998 21.5167Z" fill="black"/>
</svg>
