<svg width="21" height="20" viewBox="0 0 21 20" fill="none" xmlns="http://www.w3.org/2000/svg">
<path d="M10.97 0C5.45 0 0.970001 4.48 0.970001 10C0.970001 15.52 5.45 20 10.97 20C16.49 20 20.97 15.52 20.97 10C20.97 4.48 16.5 0 10.97 0ZM13.97 12.23L11.07 13.9C10.71 14.11 10.31 14.21 9.92 14.21C9.52 14.21 9.13 14.11 8.77 13.9C8.05 13.48 7.62 12.74 7.62 11.9V8.55C7.62 7.72 8.05 6.97 8.77 6.55C9.49 6.13 10.35 6.13 11.08 6.55L13.98 8.22C14.7 8.64 15.13 9.38 15.13 10.22C15.13 11.06 14.7 11.81 13.97 12.23Z" fill="white"/>
</svg>
